# xmcd CD database file
#
# Track frame offsets:
#	150
#	11587
#	23422
#	37122
#	49460
#	60230
#	71215
#	85312
#	104972
#	117790
#	131007
#	143480
#	157270
#	169977
#	180082
#	193910
#	207180
#	221410
#	233482
#	247535
#
# Disc length: 3477 seconds
#
# Revision: 0
# Processed by: cddbd v1.5.2PL0 Copyright (c) Steve Scherf et al.
# Submitted via: CDex 1.51
#
DISCID=150d9314
DTITLE=Various Artist - 50 Years of Easy-Listening Country
DYEAR=1995
DGENRE=Country
TTITLE0=Oh, Lonesome Me
TTITLE1=Sixteen Tons
TTITLE2=Tennessee Waltz
TTITLE3=I Walk The Line
TTITLE4=Gone
TTITLE5=Don't Let The Stars Get In Your Eyes
TTITLE6=Crying In The Chapel
TTITLE7=El Paso
TTITLE8=I'm Movin' On
TTITLE9=Jambalaya (On The Bayou)
TTITLE10=I Love You So Much It Hurts
TTITLE11=(Ghost) Riders In The Sky (A Cowboy Legend)
TTITLE12=Just A Little Lovin' (Will Go A Long, Long Way)
TTITLE13=Slippin' Around
TTITLE14=Pistol Packin' Mama
TTITLE15=Smoke On The Water
TTITLE16=Mule Train
TTITLE17=Walking The Floor Over You
TTITLE18=Why Don't You Haul Off And Love Me
TTITLE19=So Round, So Firm, So Fully Packed
EXTD=YEAR: 1995
EXTT0=
EXTT1=
EXTT2=
EXTT3=
EXTT4=
EXTT5=
EXTT6=
EXTT7=
EXTT8=
EXTT9=
EXTT10=
EXTT11=
EXTT12=
EXTT13=
EXTT14=
EXTT15=
EXTT16=
EXTT17=
EXTT18=
EXTT19=
PLAYORDER=
